<?xml version="1.0" encoding="UTF-8"?>
<svg version="1.1" xmlns="http://www.w3.org/2000/svg" width="1080" height="610">
<path d="M0 0 C6.74306271 5.42515861 9.4782546 12.45293778 12.5859375 20.296875 C14.77478577 25.79132051 17.15431683 31.19084029 19.55859375 36.59375 C24.2734606 47.25202835 28.9032696 57.94493925 33.49609375 68.65625 C33.80584137 69.37738983 34.11558899 70.09852966 34.4347229 70.84152222 C37.8983292 78.9078749 41.32651519 86.98893357 44.69921875 95.09375 C45.00510925 95.82215088 45.31099976 96.55055176 45.62615967 97.30102539 C47.74609375 102.42469792 47.74609375 102.42469792 47.74609375 104.65625 C63.76988005 99.48378625 77.26674968 88.11795338 85.74609375 73.65625 C86.12507812 73.02203125 86.5040625 72.3878125 86.89453125 71.734375 C93.43846479 59.82736811 94.49776608 46.40799905 91.05859375 33.40625 C89.00666345 26.87208898 86.40178704 20.95860147 82.09375 15.6015625 C80.74609375 13.65625 80.74609375 13.65625 80.74609375 10.65625 C83.05609375 10.98625 85.36609375 11.31625 87.74609375 11.65625 C87.74609375 12.31625 87.74609375 12.97625 87.74609375 13.65625 C88.44734375 13.883125 89.14859375 14.11 89.87109375 14.34375 C93.4873791 15.99466288 95.83379351 17.9471335 98.74609375 20.65625 C98.74609375 21.31625 98.74609375 21.97625 98.74609375 22.65625 C99.40609375 22.65625 100.06609375 22.65625 100.74609375 22.65625 C105.45147375 28.3335221 109.6774548 34.94097504 112.74609375 41.65625 C113.13776733 42.5078772 113.13776733 42.5078772 113.53735352 43.37670898 C116.27068953 50.22912636 116.2364637 57.18260427 116.19213867 64.45776367 C116.18362172 66.58675778 116.21247842 68.71306586 116.24414062 70.84179688 C116.28548149 78.8160481 115.54749389 85.48938604 111.74609375 92.65625 C111.26527344 93.59597656 110.78445313 94.53570312 110.2890625 95.50390625 C104.58387034 104.82622311 98.07080192 113.48445457 89.74609375 120.65625 C89.08609375 120.65625 88.42609375 120.65625 87.74609375 120.65625 C87.74609375 121.31625 87.74609375 121.97625 87.74609375 122.65625 C82.33432904 126.65625 82.33432904 126.65625 79.74609375 126.65625 C79.74609375 127.31625 79.74609375 127.97625 79.74609375 128.65625 C77.27199156 130.2879793 74.80949716 131.80325164 72.24609375 133.28125 C71.53066406 133.70148438 70.81523438 134.12171875 70.078125 134.5546875 C68.30463342 135.59513589 66.52584109 136.62653904 64.74609375 137.65625 C65.30161613 141.70352193 66.17804356 145.0799153 67.86328125 148.796875 C68.30043457 149.77277588 68.73758789 150.74867676 69.18798828 151.75415039 C69.89737549 153.3144397 69.89737549 153.3144397 70.62109375 154.90625 C71.61717894 157.13874623 72.6119269 159.37183948 73.60546875 161.60546875 C74.12044922 162.75966309 74.63542969 163.91385742 75.16601562 165.10302734 C77.77039135 170.95965346 80.33576483 176.8319304 82.87109375 182.71875 C83.58048096 184.33088379 83.58048096 184.33088379 84.30419922 185.97558594 C89.62074099 198.38019684 89.62074099 198.38019684 88.18359375 205.40625 C86.20744269 208.49935601 84.10230668 210.26821367 80.74609375 211.65625 C76.61258745 212.27047329 72.54354999 212.26008552 68.37109375 212.21875 C67.2728125 212.24259766 66.17453125 212.26644531 65.04296875 212.29101562 C58.00345386 212.27835463 53.09382444 211.41081965 47.74609375 206.65625 C44.83482967 203.35063142 42.87008817 199.50735282 40.74609375 195.65625 C40.37758301 194.99318848 40.00907227 194.33012695 39.62939453 193.64697266 C32.63166274 180.97307988 26.59564947 167.89204536 20.74609375 154.65625 C-1.22937546 156.34127 -25.35293752 164.75192566 -43.3996582 177.49755859 C-45.25390625 178.65625 -45.25390625 178.65625 -47.25390625 178.65625 C-47.25390625 179.31625 -47.25390625 179.97625 -47.25390625 180.65625 C-48.96875 182.3125 -48.96875 182.3125 -51.19140625 184.15625 C-54.17435804 186.54551999 -54.17435804 186.54551999 -56.25390625 189.65625 C-56.91390625 189.65625 -57.57390625 189.65625 -58.25390625 189.65625 C-58.51171875 190.36136719 -58.76953125 191.06648437 -59.03515625 191.79296875 C-60.35720811 194.89894315 -61.95138479 197.61603065 -63.75390625 200.46875 C-64.36234375 201.44457031 -64.97078125 202.42039062 -65.59765625 203.42578125 C-66.14421875 204.16183594 -66.69078125 204.89789063 -67.25390625 205.65625 C-67.91390625 205.65625 -68.57390625 205.65625 -69.25390625 205.65625 C-69.25390625 206.31625 -69.25390625 206.97625 -69.25390625 207.65625 C-76.04904229 211.77426618 -81.51540725 212.30076195 -89.37890625 212.21875 C-90.43722656 212.24259766 -91.49554688 212.26644531 -92.5859375 212.29101562 C-101.19789378 212.27480743 -101.19789378 212.27480743 -104.9296875 209.38671875 C-108.07951102 205.68633785 -108.07951102 205.68633785 -108.31640625 202.40625 C-108.38988281 201.72046875 -108.46335937 201.0346875 -108.5390625 200.328125 C-107.68702159 192.34461838 -103.72102209 184.5080365 -100.81640625 177.09375 C-100.43419922 176.10439453 -100.05199219 175.11503906 -99.65820312 174.09570312 C-97.6947955 169.07217972 -95.61582813 164.20232125 -93.14038086 159.41040039 C-91.86360984 156.88393391 -90.80968655 154.28143345 -89.75390625 151.65625 C-88.34230754 148.21143113 -86.89900278 144.83929975 -85.19140625 141.53125 C-83.39679197 138.03423482 -81.94454058 134.46520756 -80.5078125 130.80859375 C-76.62046826 121.03573768 -72.68487656 111.26823471 -67.87890625 101.90625 C-64.46403381 95.22963842 -61.47419466 88.40751092 -58.51269531 81.51928711 C-55.89655867 75.43555374 -53.24873098 69.36769443 -50.55859375 63.31640625 C-44.15429669 48.90369901 -37.78134042 34.51021572 -32.08740234 19.79760742 C-25.20855815 2.12498224 -25.20855815 2.12498224 -16.25390625 -2.34375 C-10.74799707 -4.23400225 -4.92160618 -2.93419849 0 0 Z M-10.25390625 85.65625 C-12.39707471 90.5828775 -14.53312179 95.5125069 -16.66259766 100.44506836 C-17.3881805 102.12299897 -18.11570998 103.80008918 -18.84521484 105.47631836 C-19.89281639 107.88437661 -20.93340426 110.29535994 -21.97265625 112.70703125 C-22.30076294 113.45712967 -22.62886963 114.20722809 -22.96691895 114.98005676 C-24.76318556 119.16603387 -24.76318556 119.16603387 -25.25390625 123.65625 C-18.54117723 123.97288816 -12.74261753 122.81199012 -6.25390625 121.15625 C-5.28839844 120.91777344 -4.32289063 120.67929687 -3.328125 120.43359375 C-0.96786638 119.84937132 1.38994357 119.25678719 3.74609375 118.65625 C3.31603817 111.41872933 0.2475734 105.32393406 -2.69140625 98.78125 C-3.19478516 97.62882812 -3.69816406 96.47640625 -4.21679688 95.2890625 C-6.2282433 89.60077118 -6.2282433 89.60077118 -10.25390625 85.65625 Z " fill="#4AA6CC" transform="translate(548.25390625,168.34375)"/>
<path d="M0 0 C6.74306271 5.42515861 9.4782546 12.45293778 12.5859375 20.296875 C14.77478264 25.79131264 17.15415043 31.19091927 19.55859375 36.59375 C24.36694664 47.45613436 29.07338424 58.35998304 33.74609375 69.28125 C34.07292145 70.04509003 34.39974915 70.80893005 34.73648071 71.59591675 C36.22631799 75.07867333 37.71527313 78.56180496 39.203125 82.04541016 C39.99041013 83.88780685 40.77860637 85.7299117 41.58763123 87.56286621 C43.2652585 91.38386181 44.261606 94.7640127 44.80859375 98.90625 C45.31258035 102.68854947 45.59406445 104.42820605 47.74609375 107.65625 C38.66357468 111.44280165 29.59449585 114.38746717 19.99609375 116.59375 C18.56789307 116.92862427 18.56789307 116.92862427 17.11083984 117.27026367 C15.7623999 117.56767456 15.7623999 117.56767456 14.38671875 117.87109375 C13.58782227 118.04761475 12.78892578 118.22413574 11.96582031 118.40600586 C9.56753639 118.67637993 7.99945902 118.50531285 5.74609375 117.65625 C4.5859375 115.6953125 4.5859375 115.6953125 3.68359375 113.28125 C2.45249606 109.93014153 2.45249606 109.93014153 0.23046875 107.22265625 C-1.85317216 105.02386677 -2.19002915 102.88995754 -2.94140625 99.96875 C-4.47735478 94.7117488 -6.3853863 90.00340356 -8.87890625 85.15625 C-9.21809082 84.49568604 -9.55727539 83.83512207 -9.90673828 83.15454102 C-10.63359708 81.74378472 -11.36149907 80.33356553 -12.09033203 78.92382812 C-35.86034134 32.60073823 -35.86034134 32.60073823 -29.171875 10 C-26.28971541 4.09276382 -22.33710564 0.19296877 -16.25390625 -2.34375 C-10.71370952 -4.19048224 -4.95263052 -2.9526948 0 0 Z " fill="#096948" transform="translate(548.25390625,168.34375)"/>
<path d="M0 0 C0.33 0 0.66 0 1 0 C0.99097656 1.06734375 0.98195313 2.1346875 0.97265625 3.234375 C1.21226991 23.69924246 9.99549817 41.01229197 19 59 C19.39461426 59.79083984 19.78922852 60.58167969 20.19580078 61.39648438 C22.33077586 65.67406866 22.33077586 65.67406866 24.48803711 69.94042969 C27.99316535 76.84816978 27.99316535 76.84816978 29 80 C28.505 81.485 28.505 81.485 28 83 C26.02 78.38 24.04 73.76 22 69 C19.13018941 75.10754562 16.31517852 81.21209811 13.703125 87.43359375 C13.30794678 88.37243408 12.91276855 89.31127441 12.50561523 90.27856445 C11.71758233 92.1585881 10.93571616 94.04120992 10.16040039 95.92651367 C9.79422607 96.79896729 9.42805176 97.6714209 9.05078125 98.5703125 C8.72762939 99.35164551 8.40447754 100.13297852 8.0715332 100.93798828 C6.95945625 103.07802062 5.74413931 104.35980821 4 106 C2.82425289 108.09989652 2.82425289 108.09989652 2 110 C0.35 110 -1.3 110 -3 110 C-3 110.66 -3 111.32 -3 112 C-7.455 112.495 -7.455 112.495 -12 113 C-12 113.99 -12 114.98 -12 116 C-13.26457031 116.39832031 -13.26457031 116.39832031 -14.5546875 116.8046875 C-15.65039062 117.15789062 -16.74609375 117.51109375 -17.875 117.875 C-18.96554687 118.22304688 -20.05609375 118.57109375 -21.1796875 118.9296875 C-24.08522723 119.81175231 -24.08522723 119.81175231 -26 122 C-27.66378265 122.67383197 -29.33080608 123.33968652 -31 124 C-36.31384883 127.10277817 -40.70752392 130.58828847 -45 135 C-45.845625 135.495 -46.69125 135.99 -47.5625 136.5 C-50.45817784 138.28195559 -51.94615841 140.30433291 -54 143 C-55.64646685 144.68662458 -57.31183067 146.35511706 -59 148 C-59.598125 148.598125 -60.19625 149.19625 -60.8125 149.8125 C-61.4003125 150.4003125 -61.4003125 150.4003125 -62 151 C-63.77324951 147.45350099 -62.07331336 143.63558593 -61 140 C-58.69087371 133.79625579 -55.9691432 127.83389367 -52.94921875 121.94921875 C-51.55202395 119.08008211 -50.42044315 116.12129452 -49.25390625 113.15234375 C-45.36656201 103.37948768 -41.43097031 93.61198471 -36.625 84.25 C-33.21012756 77.57338842 -30.22028841 70.75126092 -27.25878906 63.86303711 C-24.64265232 57.77930351 -21.99480895 51.71145155 -19.3046875 45.66015625 C-12.58876772 30.54520424 -5.93810513 15.44286766 0 0 Z " fill="#86AD6E" transform="translate(517,186)"/>
<path d="M0 0 C0.28875 0.639375 0.5775 1.27875 0.875 1.9375 C1.82823451 4.15206079 1.82823451 4.15206079 4 5 C5.06225586 6.99584961 5.06225586 6.99584961 6.21484375 9.65234375 C6.64877441 10.64435791 7.08270508 11.63637207 7.52978516 12.65844727 C8.226604 14.28157837 8.226604 14.28157837 8.9375 15.9375 C9.41751465 17.04601318 9.8975293 18.15452637 10.39208984 19.29663086 C11.40984306 21.6518183 12.42439632 24.00839068 13.43603516 26.36621094 C14.98802397 29.97217432 16.56077103 33.56851585 18.13671875 37.1640625 C19.13368535 39.46316337 20.12980576 41.76263139 21.125 44.0625 C21.83450806 45.67402954 21.83450806 45.67402954 22.55834961 47.31811523 C27.87390023 59.72759886 27.87390023 59.72759886 26.4375 66.75 C24.46134894 69.84310601 22.35621293 71.61196367 19 73 C14.8664937 73.61422329 10.79745624 73.60383552 6.625 73.5625 C4.97757813 73.59827148 4.97757813 73.59827148 3.296875 73.63476562 C-3.74263989 73.62210463 -8.65226931 72.75456965 -14 68 C-16.91207304 64.69346289 -18.86729259 60.84749033 -21 57 C-21.4110498 56.28376465 -21.82209961 55.5675293 -22.24560547 54.82958984 C-31.70454493 38.29963789 -31.70454493 38.29963789 -32.640625 28.45703125 C-33.1922233 24.68577763 -34.96854195 22.18261762 -37 19 C-37 18.01 -37 17.02 -37 16 C-37.99 15.67 -38.98 15.34 -40 15 C-40 14.01 -40 13.02 -40 12 C-38.74832031 11.7525 -37.49664063 11.505 -36.20703125 11.25 C-30.51666716 9.98423662 -25.14308023 8.03066776 -19.6875 6 C-18.71232422 5.64421875 -17.73714844 5.2884375 -16.73242188 4.921875 C-11.70950516 3.11462505 -11.70950516 3.11462505 -6.86645508 0.890625 C-4.49094653 -0.2429074 -2.59814636 -0.14434146 0 0 Z " fill="#0884B9" transform="translate(610,307)"/>
<path d="M0 0 C2.31 0.33 4.62 0.66 7 1 C7 1.66 7 2.32 7 3 C8.051875 3.3403125 8.051875 3.3403125 9.125 3.6875 C12.74128535 5.33841288 15.08769976 7.2908835 18 10 C18 10.66 18 11.32 18 12 C18.66 12 19.32 12 20 12 C24.70538 17.6772721 28.93136105 24.28472504 32 31 C32.26111572 31.56775146 32.52223145 32.13550293 32.79125977 32.72045898 C35.52459578 39.57287636 35.49036995 46.52635427 35.44604492 53.80151367 C35.43752797 55.93050778 35.46638467 58.05681586 35.49804688 60.18554688 C35.55609956 71.52814784 32.81779676 79.44219104 27 89 C26.67 88.01 26.34 87.02 26 86 C26.33 85.67 26.66 85.34 27 85 C27.144375 83.96875 27.28875 82.9375 27.4375 81.875 C27.9917917 78.05654608 28.87414012 74.67780895 30 71 C30.66 71 31.32 71 32 71 C32.74212774 53.17128509 32.74212774 53.17128509 28.97265625 35.90234375 C28 33 28 33 27.46875 29.2421875 C26.97428831 25.82216078 26.55518556 25.11080547 24 23 C24 22.34 24 21.68 24 21 C23.360625 20.731875 22.72125 20.46375 22.0625 20.1875 C20 19 20 19 19 16 C17.68 16 16.36 16 15 16 C15.2475 16.928125 15.2475 16.928125 15.5 17.875 C16.49865182 22.11927023 15.99021921 26.71296669 15.96484375 31.05859375 C15.95552191 33.51822839 15.94641634 35.97786386 15.9375 38.4375 C15.92493164 40.29858398 15.92493164 40.29858398 15.91210938 42.19726562 C15.90888672 43.38900391 15.90566406 44.58074219 15.90234375 45.80859375 C15.89710693 46.89970459 15.89187012 47.99081543 15.88647461 49.11499023 C15.98420688 51.59865106 16.27616087 53.63598364 17 56 C16.08734375 56.34417969 16.08734375 56.34417969 15.15625 56.6953125 C12.3834672 58.37304702 11.79234128 59.93230397 10.5 62.875 C8.73937384 66.64544864 7.12442204 69.19879403 4 72 C3.30062468 73.31647119 2.63270867 74.65022151 2 76 C-0.23248456 79.61449881 -2.12027746 80.46853057 -6 82 C-6.33 82.99 -6.66 83.98 -7 85 C-9.38158121 87.11696107 -11.73738532 88.84899656 -14.5 90.4375 C-17.18762713 91.98034452 -17.18762713 91.98034452 -19.625 94.6875 C-22 97 -22 97 -25 97 C-28.7491557 98.14104739 -32.37743397 99.50835517 -36 101 C-35.34 99.35 -34.68 97.7 -34 96 C-34.66 95.67 -35.32 95.34 -36 95 C-36.4140625 92.71484375 -36.4140625 92.71484375 -36.625 89.9375 C-36.73714844 88.55884766 -36.73714844 88.55884766 -36.8515625 87.15234375 C-36.92503906 86.08693359 -36.92503906 86.08693359 -37 85 C-34.49701566 87.93828597 -33.53069061 90.17902761 -33 94 C-16.9762137 88.82753625 -3.47934407 77.46170338 5 63 C5.37898437 62.36578125 5.75796875 61.7315625 6.1484375 61.078125 C12.69237104 49.17111811 13.75167233 35.75174905 10.3125 22.75 C8.2605697 16.21583898 5.65569329 10.30235147 1.34765625 4.9453125 C0 3 0 3 0 0 Z " fill="#7FBBD3" transform="translate(629,179)"/>
<path d="M0 0 C0 0.66 0 1.32 0 2 C-1.65 2 -3.3 2 -5 2 C-5 2.66 -5 3.32 -5 4 C-9.455 4.495 -9.455 4.495 -14 5 C-14 5.99 -14 6.98 -14 8 C-14.84304688 8.26554687 -15.68609375 8.53109375 -16.5546875 8.8046875 C-17.65039062 9.15789062 -18.74609375 9.51109375 -19.875 9.875 C-21.51082031 10.39707031 -21.51082031 10.39707031 -23.1796875 10.9296875 C-26.08522723 11.81175231 -26.08522723 11.81175231 -28 14 C-29.66378265 14.67383197 -31.33080608 15.33968652 -33 16 C-38.31384883 19.10277817 -42.70752392 22.58828847 -47 27 C-47.845625 27.495 -48.69125 27.99 -49.5625 28.5 C-52.45817784 30.28195559 -53.94615841 32.30433291 -56 35 C-57.64646685 36.68662458 -59.31183067 38.35511706 -61 40 C-61.598125 40.598125 -62.19625 41.19625 -62.8125 41.8125 C-63.4003125 42.4003125 -63.4003125 42.4003125 -64 43 C-65 41 -65 41 -64.3125 38.375 C-62.78325592 34.44265808 -60.95325089 30.73582938 -59 27 C-58.34 27 -57.68 27 -57 27 C-57 26.01 -57 25.02 -57 24 C-54.23735711 23.40267181 -51.83967231 23 -49 23 C-47.45478204 21.8906841 -47.45478204 21.8906841 -45.9375 20.375 C-40.29900193 15.34574643 -33.77671381 10.40930073 -26 10 C-26 9.34 -26 8.68 -26 8 C-25.34 8 -24.68 8 -24 8 C-23.835 7.360625 -23.67 6.72125 -23.5 6.0625 C-22 4 -22 4 -18.125 3.375 C-17.40699219 3.32085937 -16.68898438 3.26671875 -15.94921875 3.2109375 C-13.62075365 2.95895931 -12.06836004 2.06754067 -10 1 C-6.61158511 0.40554125 -3.43985774 0 0 0 Z " fill="#5C9971" transform="translate(519,294)"/>
<path d="M0 0 C0.99 0.33 1.98 0.66 3 1 C3 1.66 3 2.32 3 3 C3.66 3 4.32 3 5 3 C9.70538 8.6772721 13.93136105 15.28472504 17 22 C17.26111572 22.56775146 17.52223145 23.13550293 17.79125977 23.72045898 C20.52459578 30.57287636 20.49036995 37.52635427 20.44604492 44.80151367 C20.43752797 46.93050778 20.46638467 49.05681586 20.49804688 51.18554688 C20.55609956 62.52814784 17.81779676 70.44219104 12 80 C11.67 79.01 11.34 78.02 11 77 C11.495 76.505 11.495 76.505 12 76 C12.144375 74.96875 12.28875 73.9375 12.4375 72.875 C12.9917917 69.05654608 13.87414012 65.67780895 15 62 C15.66 62 16.32 62 17 62 C17.74212774 44.17128509 17.74212774 44.17128509 13.97265625 26.90234375 C13 24 13 24 12.46875 20.2421875 C11.97428831 16.82216078 11.55518556 16.11080547 9 14 C9 13.34 9 12.68 9 12 C8.360625 11.690625 7.72125 11.38125 7.0625 11.0625 C5 10 5 10 4 9 C3.95936168 7.33382885 3.957279 5.66611905 4 4 C2.68 4 1.36 4 0 4 C0 2.68 0 1.36 0 0 Z " fill="#96C7DA" transform="translate(644,188)"/>
<path d="M0 0 C1.97999607 6.038988 -0.03980699 13.06433258 -2.375 18.8125 C-4 22 -4 22 -6.125 24.9375 C-7.9124552 27.85701016 -8.27271909 28.94668494 -8.5625 32.1875 C-9.02344759 36.20432902 -9.14208416 36.58176352 -12 39 C-13.04622875 40.97620986 -14.05439935 42.9737129 -15 45 C-15.66 45 -16.32 45 -17 45 C-17.061875 46.19625 -17.12375 47.3925 -17.1875 48.625 C-17.66521346 52.52860142 -18.90668389 54.4037971 -21.65625 57.28125 C-24.32776078 60.69829867 -25.56570861 64.94552265 -27 69 C-27.66 69 -28.32 69 -29 69 C-26.71833012 61.56315789 -23.64553091 54.70764103 -20.3125 47.6875 C-15.43977999 37.28814198 -10.97784751 26.80709743 -6.82421875 16.10351562 C-2.3776824 4.75536481 -2.3776824 4.75536481 0 0 Z " fill="#A8C490" transform="translate(517,186)"/>
<path d="M0 0 C2.6953776 2.36293156 3.88740053 4.62616113 5.2421875 7.92578125 C5.66274414 8.93640625 6.08330078 9.94703125 6.51660156 10.98828125 C7.18900879 12.63376953 7.18900879 12.63376953 7.875 14.3125 C8.84467191 16.65304141 9.81610253 18.99285477 10.7890625 21.33203125 C11.04312866 21.94446686 11.29719482 22.55690247 11.55895996 23.18789673 C13.53162872 27.92570186 15.57641655 32.62911617 17.6484375 37.32421875 C17.94954437 38.00865555 18.25065125 38.69309235 18.56088257 39.39826965 C19.75148432 42.10421012 20.94207144 44.81003678 22.14691162 47.50967407 C22.98505135 49.38890445 23.81368617 51.27206998 24.640625 53.15625 C25.12047852 54.23712891 25.60033203 55.31800781 26.09472656 56.43164062 C26.54283691 57.70297852 26.54283691 57.70297852 27 59 C26.67 59.66 26.34 60.32 26 61 C25.15930585 59.39967863 24.32768495 57.79458829 23.5 56.1875 C22.80390625 54.84751953 22.80390625 54.84751953 22.09375 53.48046875 C21 51 21 51 21 48 C20.071875 47.6596875 20.071875 47.6596875 19.125 47.3125 C16.38589791 45.62070165 15.94975528 44.00755839 15 41 C14.34 41 13.68 41 13 41 C11.19180165 37.02196363 10.5597908 33.31838621 10 29 C9.67 28.01 9.34 27.02 9 26 C8.01 26 7.02 26 6 26 C6.04125 25.05125 6.0825 24.1025 6.125 23.125 C6.34973818 19.89755144 6.34973818 19.89755144 4 18 C3.4375 15.5390625 3.4375 15.5390625 3 12.625 C2.44916926 8.97574636 1.66916947 6.2687902 0 3 C0 2.01 0 1.02 0 0 Z " fill="#488D79" transform="translate(559,188)"/>
<path d="M0 0 C0.66 0.66 1.32 1.32 2 2 C-1.17771751 6.17642873 -3.00365991 8.19576608 -8 10 C-8.33 10.99 -8.66 11.98 -9 13 C-11.38158121 15.11696107 -13.73738532 16.84899656 -16.5 18.4375 C-19.18762713 19.98034452 -19.18762713 19.98034452 -21.625 22.6875 C-24 25 -24 25 -27 25 C-30.7491557 26.14104739 -34.37743397 27.50835517 -38 29 C-37.34 27.35 -36.68 25.7 -36 24 C-36.66 23.67 -37.32 23.34 -38 23 C-38.4140625 20.71484375 -38.4140625 20.71484375 -38.625 17.9375 C-38.69976563 17.01839844 -38.77453125 16.09929687 -38.8515625 15.15234375 C-38.90054688 14.44207031 -38.94953125 13.73179687 -39 13 C-36.49701566 15.93828597 -35.53069061 18.17902761 -35 22 C-28.34809989 19.72137039 -22.93427392 16.83288835 -17.32421875 12.5859375 C-15 11 -15 11 -12.43359375 10.015625 C-9.68546052 8.86873152 -8.35511723 7.57211638 -6.375 5.375 C-4.6484375 3.4609375 -4.6484375 3.4609375 -3 2 C-2.01 2 -1.02 2 0 2 C0 1.34 0 0.68 0 0 Z " fill="#6DB3CF" transform="translate(631,251)"/>
<path d="M0 0 C2.07163701 2.61591873 3.6282184 5.08799821 4.9453125 8.15087891 C5.29577637 8.95917145 5.64624023 9.76746399 6.00732422 10.60025024 C6.37615723 11.46693329 6.74499023 12.33361633 7.125 13.2265625 C7.51316895 14.12941986 7.90133789 15.03227722 8.30126953 15.9624939 C9.12083635 17.87277744 9.93766801 19.78423644 10.75195312 21.69677734 C11.98804458 24.59694966 13.23554325 27.49201356 14.484375 30.38671875 C15.28194605 32.24970217 16.07884243 34.11297459 16.875 35.9765625 C17.24383301 36.83110016 17.61266602 37.68563782 17.99267578 38.56607056 C25.29978752 55.81316399 25.29978752 55.81316399 23 63 C17.03020996 68.8167185 11.83444573 68.27595712 3.875 68.375 C2.75867188 68.41238281 1.64234375 68.44976562 0.4921875 68.48828125 C-5.93270532 68.55646997 -10.337596 68.021542 -15.70263672 64.37353516 C-17 63 -17 63 -17 60 C-16.278125 60.45375 -15.55625 60.9075 -14.8125 61.375 C-7.62084323 65.53017947 -0.60701002 66.14940517 7.625 66.25 C8.89601563 66.27578125 10.16703125 66.3015625 11.4765625 66.328125 C15.20685822 65.98073604 17.05165896 65.25783737 20 63 C22.20887043 58.58225913 21.56151989 53.69741445 20.06152344 49.16308594 C18.74048195 46.0272804 17.33143912 42.9502254 15.875 39.875 C14.85873023 37.65583845 13.84439838 35.43578837 12.83203125 33.21484375 C12.3417041 32.14862793 11.85137695 31.08241211 11.34619141 29.98388672 C9.62979633 26.17942885 8.06623197 22.32996223 6.5625 18.4375 C5.07491853 14.61721832 3.53186324 10.94147848 1.625 7.3125 C0 4 0 4 0 0 Z " fill="#B8E4F0" transform="translate(613,312)"/>
<path d="M0 0 C0.66 0.33 1.32 0.66 2 1 C0.23205273 2.95404698 -1.33804868 4.20121946 -3.625 5.5625 C-6.11190375 6.77912906 -6.11190375 6.77912906 -7 9 C-7.66 9 -8.32 9 -9 9 C-9 9.66 -9 10.32 -9 11 C-9.61875 11.04125 -10.2375 11.0825 -10.875 11.125 C-11.57625 11.41375 -12.2775 11.7025 -13 12 C-13.28875 12.86625 -13.5775 13.7325 -13.875 14.625 C-15.73467081 20.20401244 -19.95036982 24.93415311 -25 28 C-25.66 28 -26.32 28 -27 28 C-27.0825 29.051875 -27.165 30.10375 -27.25 31.1875 C-28.06371661 35.32389276 -29.2524676 36.90902605 -32 40 C-32.33 40.99 -32.66 41.98 -33 43 C-33.66 43 -34.32 43 -35 43 C-35.66 44.32 -36.32 45.64 -37 47 C-37.35446497 42.74642032 -36.61715956 41.27144945 -34 38 C-33.07595788 36.11891426 -32.15216434 34.23770535 -31.23046875 32.35546875 C-27.6692279 25.53823626 -24.15547864 19.69417802 -18 15 C-17.34 14.154375 -16.68 13.30875 -16 12.4375 C-13.85225213 9.81993228 -11.89854525 8.69670941 -9 7 C-8.154375 6.154375 -7.30875 5.30875 -6.4375 4.4375 C-4.29204533 2.29204533 -2.84105283 0.97967339 0 0 Z " fill="#3F9DAD" transform="translate(483,311)"/>
<path d="M0 0 C0.33 0 0.66 0 1 0 C1.08040527 0.62567871 1.16081055 1.25135742 1.24365234 1.89599609 C1.61200718 4.72355296 1.9933349 7.54921035 2.375 10.375 C2.50132812 11.35984375 2.62765625 12.3446875 2.7578125 13.359375 C2.88671875 14.30039063 3.015625 15.24140625 3.1484375 16.2109375 C3.26364746 17.08024902 3.37885742 17.94956055 3.49755859 18.84521484 C3.84629199 21.19833324 3.84629199 21.19833324 6 23 C7.01606001 26.6458624 7.88594528 30.12558051 8.375 33.875 C8.58125 34.57625 8.7875 35.2775 9 36 C9.64066406 36.25910156 10.28132812 36.51820313 10.94140625 36.78515625 C13 38 13 38 13.94140625 40.56640625 C14.14636719 41.55511719 14.35132813 42.54382813 14.5625 43.5625 C15.11770459 46.49932539 15.11770459 46.49932539 16 49 C17.485 49.495 17.485 49.495 19 50 C19 51.98 19 53.96 19 56 C15.05892499 51.58780798 12.68814455 46.73991385 10.1875 41.4375 C9.53817505 40.06476929 9.53817505 40.06476929 8.87573242 38.66430664 C5.87898256 32.1950708 3.20624667 25.65278879 0.8125 18.9375 C0.50916748 18.09952881 0.20583496 17.26155762 -0.10668945 16.39819336 C-0.37441162 15.61581299 -0.64213379 14.83343262 -0.91796875 14.02734375 C-1.15281982 13.34406006 -1.3876709 12.66077637 -1.62963867 11.95678711 C-2.06846777 9.6382537 -1.69125265 8.23782197 -1 6 C-0.65421232 4.00211562 -0.31856451 2.00240549 0 0 Z " fill="#1C6B46" transform="translate(520,194)"/>
<path d="M0 0 C0.12375 0.61875 0.2475 1.2375 0.375 1.875 C0.87197356 4.19120832 0.87197356 4.19120832 3 6 C2.60167969 6.58007812 2.20335937 7.16015625 1.79296875 7.7578125 C-1.12695314 12.06309879 -3.76276565 16.29003294 -6 21 C-6.33 21.33 -6.66 21.66 -7 22 C-7.103125 23.134375 -7.20625 24.26875 -7.3125 25.4375 C-7.539375 26.613125 -7.76625 27.78875 -8 29 C-10.04296875 30.22265625 -10.04296875 30.22265625 -12 31 C-11.9278125 31.83144531 -11.855625 32.66289062 -11.78125 33.51953125 C-11.64203125 35.14955078 -11.64203125 35.14955078 -11.5 36.8125 C-11.4071875 37.89144531 -11.314375 38.97039062 -11.21875 40.08203125 C-11 43 -11 43 -11 46 C-13.25948332 43.74051668 -13.40633658 43.00809544 -13.8125 39.9375 C-13.92207031 39.22464844 -14.03164063 38.51179688 -14.14453125 37.77734375 C-13.72469351 29.70965104 -9.35097967 21.55841306 -6.4375 14.125 C-6.03853516 13.09375 -5.63957031 12.0625 -5.22851562 11 C-4.84244141 10.01257813 -4.45636719 9.02515625 -4.05859375 8.0078125 C-3.71111084 7.11723145 -3.36362793 6.22665039 -3.00561523 5.30908203 C-2 3 -2 3 0 0 Z " fill="#84C1CD" transform="translate(454,331)"/>
<path d="M0 0 C4.63808877 4.63808877 7.27500909 12.44079381 7.625 18.9375 C7.4216425 22.43906192 6.95422158 23.05782537 4.625 26 C0.42717144 29.19834557 -1.90936005 29.13542081 -7.1875 29.125 C-8.48042969 29.12757813 -9.77335938 29.13015625 -11.10546875 29.1328125 C-14.84481562 29.00529215 -18.31601375 28.60205223 -22 28 C-22 27.67 -22 27.34 -22 27 C-14.41 27 -6.82 27 1 27 C1.66 25.02 2.32 23.04 3 21 C3.66 20.01 4.32 19.02 5 18 C4.12627051 14.91915822 4.12627051 14.91915822 2.625 11.625 C0.86661826 7.53464676 -0.35224649 4.47856252 0 0 Z " fill="#2C85AA" transform="translate(628,350)"/>
<path d="M0 0 C3.34337418 2.82667089 6.00484557 5.31599051 7.6484375 9.44140625 C7.6484375 10.43140625 7.6484375 11.42140625 7.6484375 12.44140625 C6.3284375 12.11140625 5.0084375 11.78140625 3.6484375 11.44140625 C3.6484375 10.12140625 3.6484375 8.80140625 3.6484375 7.44140625 C1.6684375 6.78140625 -0.3115625 6.12140625 -2.3515625 5.44140625 C-2.3515625 4.45140625 -2.3515625 3.46140625 -2.3515625 2.44140625 C-5.3215625 1.94640625 -5.3215625 1.94640625 -8.3515625 1.44140625 C-8.3515625 0.78140625 -8.3515625 0.12140625 -8.3515625 -0.55859375 C-13.32250074 -0.14705638 -17.79664636 0.23741457 -22.3515625 2.44140625 C-16.19177048 -4.66604608 -7.74280825 -5.13186128 0 0 Z " fill="#69A992" transform="translate(548.3515625,168.55859375)"/>
<path d="M0 0 C0 7.42414578 -9.15625955 14.38797218 -14.08203125 19.34765625 C-16 21 -16 21 -18 21 C-18 21.66 -18 22.32 -18 23 C-20 24.625 -20 24.625 -22 26 C-22.66 25.67 -23.32 25.34 -24 25 C-23.34 23.68 -22.68 22.36 -22 21 C-21.34 21 -20.68 21 -20 21 C-19.67 19.68 -19.34 18.36 -19 17 C-17.35 16.67 -15.7 16.34 -14 16 C-13.67 13.69 -13.34 11.38 -13 9 C-11.68 8.67 -10.36 8.34 -9 8 C-8.67 8.66 -8.34 9.32 -8 10 C-5.76370848 8.08426356 -5.76370848 8.08426356 -5.125 5 C-4 2 -4 2 -1.875 0.625 C-1.25625 0.41875 -0.6375 0.2125 0 0 Z " fill="#7EBBD3" transform="translate(654,268)"/>
<path d="M0 0 C0.66 0.33 1.32 0.66 2 1 C1.96519531 1.66386719 1.93039062 2.32773437 1.89453125 3.01171875 C1.72814994 8.43891869 1.91214572 11.42540107 5 16 C5.85617835 18.51817163 6.57912042 21.05860886 7.3046875 23.6171875 C8.04489601 26.15385713 8.9494399 28.57563054 10 31 C5.16945781 26.54750591 2.6750015 21.21050112 -0.3125 15.4375 C-0.87517578 14.38369141 -1.43785156 13.32988281 -2.01757812 12.24414062 C-2.54416016 11.23416016 -3.07074219 10.22417969 -3.61328125 9.18359375 C-4.09579346 8.26118896 -4.57830566 7.33878418 -5.07543945 6.38842773 C-6 4 -6 4 -5 1 C-3 3 -3 3 -2 5 C-1.34 5 -0.68 5 0 5 C0 3.35 0 1.7 0 0 Z " fill="#6BB0C9" transform="translate(585,341)"/>
<path d="M0 0 C0.495 0.99 0.495 0.99 1 2 C0.67 2.66 0.34 3.32 0 4 C-0.66 4 -1.32 4 -2 4 C-2 4.66 -2 5.32 -2 6 C-8.86046149 10.18927817 -14.36893754 10.58665229 -22.3125 10.4375 C-23.93768555 10.44813477 -23.93768555 10.44813477 -25.59570312 10.45898438 C-33.52706397 10.39490253 -33.52706397 10.39490253 -35.82885742 8.47290039 C-36.21533447 7.98684326 -36.60181152 7.50078613 -37 7 C-35.04320312 7.03480469 -35.04320312 7.03480469 -33.046875 7.0703125 C-23.4664139 7.18763923 -14.38662345 7.13679233 -5 5 C-4.67 4.01 -4.34 3.02 -4 2 C-1.9375 0.8125 -1.9375 0.8125 0 0 Z " fill="#85C4D8" transform="translate(481,370)"/>
<path d="M0 0 C3.3 0 6.6 0 10 0 C6.9495633 1.52521835 4.36244769 2.5979155 1.1484375 3.5859375 C0.21386719 3.87726563 -0.72070312 4.16859375 -1.68359375 4.46875 C-3.62092742 5.0656443 -5.55842347 5.66201184 -7.49609375 6.2578125 C-13.14406602 8.01942355 -18.5924598 9.98260999 -24.01708984 12.35009766 C-26 13 -26 13 -28 12 C-25.47955944 8.71246884 -23.52156323 7.74213919 -19.5625 7.0625 C-15.86740192 6.41465813 -15.21913097 6.24160595 -12.5625 3.3125 C-10 1 -10 1 -7.4765625 0.8984375 C-4.95229718 1.16005603 -2.48971083 1.51172661 0 2 C0 1.34 0 0.68 0 0 Z " fill="#7ABACD" transform="translate(546,324)"/>
<path d="M0 0 C0.66 0.33 1.32 0.66 2 1 C0.87994369 4.36016893 -0.37211797 5.69064913 -3 8 C-3.66 8 -4.32 8 -5 8 C-5.2475 8.86625 -5.495 9.7325 -5.75 10.625 C-7.08347734 14.22538882 -8.66545234 16.95801365 -11 20 C-11.99 20.33 -12.98 20.66 -14 21 C-13.59683075 14.68368172 -11.28767869 10.35006016 -8 5 C-7.34 5 -6.68 5 -6 5 C-6 4.01 -6 3.02 -6 2 C-4.7934375 1.7834375 -4.7934375 1.7834375 -3.5625 1.5625 C-1.07896294 1.25864751 -1.07896294 1.25864751 0 0 Z " fill="#61904A" transform="translate(468,316)"/>
<path d="M0 0 C2.31 0 4.62 0 7 0 C7.33 0.66 7.66 1.32 8 2 C7.34 2 6.68 2 6 2 C6 2.66 6 3.32 6 4 C2.82201909 5.8916553 -0.38348692 7.67263198 -3.66796875 9.37109375 C-5.63557256 10.46920407 -7.34811377 11.46512238 -9 13 C-9.62794221 16.20272271 -9.62794221 16.20272271 -9 19 C-9.66 18.67 -10.32 18.34 -11 18 C-11.85056945 14.44307323 -12.16909807 12.50729422 -11 9 C-10.195625 8.71125 -9.39125 8.4225 -8.5625 8.125 C-5.76071559 7.22055781 -5.76071559 7.22055781 -4.6875 4.375 C-4.460625 3.59125 -4.23375 2.8075 -4 2 C-2.68 2 -1.36 2 0 2 C0 1.34 0 0.68 0 0 Z " fill="#77B8D2" transform="translate(622,293)"/>
<path d="M0 0 C1.25127906 3.54667178 0.72285053 5.72253438 -0.4375 9.25 C-0.72496094 10.14203125 -1.01242187 11.0340625 -1.30859375 11.953125 C-1.53675781 12.62859375 -1.76492188 13.3040625 -2 14 C-2.66 14 -3.32 14 -4 14 C-4.061875 15.19625 -4.12375 16.3925 -4.1875 17.625 C-4.66521346 21.52860142 -5.90668389 23.4037971 -8.65625 26.28125 C-11.32776078 29.69829867 -12.56570861 33.94552265 -14 38 C-14.66 38 -15.32 38 -16 38 C-13.62317493 30.2046786 -10.34676919 22.98910899 -6.875 15.625 C-5.78772642 13.30531327 -4.7017264 10.98502905 -3.6171875 8.6640625 C-3.13878418 7.64779785 -2.66038086 6.6315332 -2.16748047 5.58447266 C-0.93249529 2.96808658 -0.93249529 2.96808658 0 0 Z " fill="#C1D4B3" transform="translate(504,217)"/>
<path d="M0 0 C2.50298434 2.93828597 3.46930939 5.17902761 4 9 C9.79680964 6.84624464 15.00826776 4.67811849 20 1 C20.66 1.33 21.32 1.66 22 2 C17.25 6 17.25 6 15 6 C14.87625 6.61875 14.7525 7.2375 14.625 7.875 C14 10 14 10 12 12 C10.01363702 12.70626239 8.01151741 13.36893571 6 14 C4.32836805 14.65411685 2.65984798 15.31653318 1 16 C1.66 14.35 2.32 12.7 3 11 C2.34 10.67 1.68 10.34 1 10 C0.5859375 7.71484375 0.5859375 7.71484375 0.375 4.9375 C0.30023437 4.01839844 0.22546875 3.09929687 0.1484375 2.15234375 C0.09945312 1.44207031 0.05046875 0.73179687 0 0 Z " fill="#93C8DA" transform="translate(592,264)"/>
<path d="M0 0 C2.05395559 3.08093338 2.22502666 3.56743692 2.0625 7 C1.93936823 9.82667719 2.07450994 11.22352981 3 14 C4.72888555 14.16955795 6.45812443 14.33551514 8.1875 14.5 C9.15042969 14.5928125 10.11335938 14.685625 11.10546875 14.78125 C13.75187667 14.98124844 16.34760865 15.03879183 19 15 C19.33 15.66 19.66 16.32 20 17 C17.08234109 17.10806144 14.16868875 17.18732877 11.25 17.25 C10.425 17.28351563 9.6 17.31703125 8.75 17.3515625 C4.95603223 17.41275553 2.69569876 17.44117482 -0.5625 15.375 C-2.41986113 12.30631639 -2.40488803 10.31242464 -2.25 6.75 C-2.21390625 5.67234375 -2.1778125 4.5946875 -2.140625 3.484375 C-2.09421875 2.66453125 -2.0478125 1.8446875 -2 1 C-1.34 0.67 -0.68 0.34 0 0 Z " fill="#3291B0" transform="translate(444,361)"/>
<path d="M0 0 C2 0 2 0 3.5234375 1.1484375 C5.42728184 3.53579786 5.91454215 5.66606015 6.625 8.625 C7.24293679 12.10894051 7.24293679 12.10894051 9 15 C10.03108221 26.85104563 10.24590518 39.11006291 5 50 C4.34 50 3.68 50 3 50 C3.28875 48.99582031 3.5775 47.99164063 3.875 46.95703125 C8.53251514 30.112904 7.62681397 16.01630933 0 0 Z " fill="#BDDFEC" transform="translate(634,188)"/>
<path d="M0 0 C0.99 0.33 1.98 0.66 3 1 C3 1.66 3 2.32 3 3 C3.66 3 4.32 3 5 3 C6.70015316 6.78611885 8.38294634 10.57970339 10.0625 14.375 C10.79049805 15.99535156 10.79049805 15.99535156 11.53320312 17.6484375 C11.98759766 18.6796875 12.44199219 19.7109375 12.91015625 20.7734375 C13.33433838 21.72653809 13.75852051 22.67963867 14.19555664 23.66162109 C14.46102295 24.43328613 14.72648926 25.20495117 15 26 C14.67 26.66 14.34 27.32 14 28 C13.15930585 26.39967863 12.32768495 24.79458829 11.5 23.1875 C11.0359375 22.29417969 10.571875 21.40085938 10.09375 20.48046875 C9 18 9 18 9 15 C8.38125 14.773125 7.7625 14.54625 7.125 14.3125 C4.38589791 12.62070165 3.94975528 11.00755839 3 8 C2.34 8 1.68 8 1 8 C-1.125 3.375 -1.125 3.375 0 0 Z " fill="#73A999" transform="translate(571,221)"/>
<path d="M0 0 C0.99 0.33 1.98 0.66 3 1 C1.99888483 5.67187078 0.11758798 9.36281403 -3 13 C-3.66 13 -4.32 13 -5 13 C-5 13.99 -5 14.98 -5 16 C-5.66 16 -6.32 16 -7 16 C-7.268125 16.928125 -7.53625 17.85625 -7.8125 18.8125 C-8.94480421 21.85184289 -9.69900511 22.90073617 -12 25 C-9.83836487 18.06001352 -7.1063786 11.56882431 -4 5 C-2.68 5 -1.36 5 0 5 C0 3.35 0 1.7 0 0 Z " fill="#A6BC93" transform="translate(467,305)"/>
<path d="M0 0 C1.33544702 4.00634106 -0.09602448 6.20374667 -1.74609375 9.85546875 C-2.03605728 10.51710526 -2.32602081 11.17874176 -2.62477112 11.86042786 C-3.55333988 13.97355932 -4.49519943 16.08046122 -5.4375 18.1875 C-6.06924343 19.61875074 -6.70011385 21.05038715 -7.33007812 22.48242188 C-8.87662269 25.99283749 -10.43511331 29.49772483 -12 33 C-13.1839531 29.44814071 -12.72624553 28.06042488 -11.75 24.5 C-11.49734375 23.5409375 -11.2446875 22.581875 -10.984375 21.59375 C-9.98139364 18.95097371 -9.07411973 17.84181832 -7 16 C-5.49524764 13.06969277 -5 11.19201356 -5 7.875 C-5 5 -5 5 -3 2 C-2.01 2 -1.02 2 0 2 C0 1.34 0 0.68 0 0 Z " fill="#C9D7C1" transform="translate(536,256)"/>
<path d="M0 0 C2.31 0.33 4.62 0.66 7 1 C7 1.66 7 2.32 7 3 C8.1446875 3.37125 8.1446875 3.37125 9.3125 3.75 C12.2364045 5.10995558 13.30004356 6.31585826 15 9 C14.01 8.67 13.02 8.34 12 8 C10.0509375 8.12375 10.0509375 8.12375 8.0625 8.25 C4.57837523 8.30774792 4.2323745 8.21494642 1.5 5.6875 C0 3 0 3 0 0 Z " fill="#B5D3DE" transform="translate(629,179)"/>
<path d="M0 0 C0 0.66 0 1.32 0 2 C-1.65 2 -3.3 2 -5 2 C-5 2.66 -5 3.32 -5 4 C-14.405 5.98 -14.405 5.98 -24 8 C-23.34 6.68 -22.68 5.36 -22 4 C-19.99194699 3.67612048 -17.97746549 3.36387532 -15.94921875 3.2109375 C-13.62075365 2.95895931 -12.06836004 2.06754067 -10 1 C-6.61158511 0.40554125 -3.43985774 0 0 0 Z " fill="#6BA16B" transform="translate(519,294)"/>
<path d="M0 0 C1 2 1 2 0.22265625 4.3828125 C-0.35162109 5.74019531 -0.35162109 5.74019531 -0.9375 7.125 C-1.31777344 8.03507813 -1.69804688 8.94515625 -2.08984375 9.8828125 C-2.39019531 10.58148438 -2.69054687 11.28015625 -3 12 C-3.66 12 -4.32 12 -5 12 C-5 12.66 -5 13.32 -5 14 C-6.051875 14.61875 -6.051875 14.61875 -7.125 15.25 C-10.69135061 17.42082211 -13.11888799 19.98488278 -16 23 C-16.66 22.67 -17.32 22.34 -18 22 C-17.34773437 21.38253906 -16.69546875 20.76507813 -16.0234375 20.12890625 C-10.51781725 14.79381407 -5.96655957 9.55286362 -2 3 C-1.34 2.01 -0.68 1.02 0 0 Z " fill="#ACD9E5" transform="translate(636,239)"/>
<path d="M0 0 C2.36906579 3.03469454 4.39210262 6.16336684 6.3125 9.5 C6.86550781 10.4384375 7.41851563 11.376875 7.98828125 12.34375 C9 15 9 15 8.16796875 17.34375 C7.78253906 17.8903125 7.39710938 18.436875 7 19 C6.34 19 5.68 19 5 19 C2.86937804 15.4489634 2.57926843 12.05487903 2 8 C1.34870203 6.65909241 0.68486725 5.32407669 0 4 C0 2.68 0 1.36 0 0 Z " fill="#71A474" transform="translate(530,235)"/>
<path d="M0 0 C0.99 0.33 1.98 0.66 3 1 C3 1.66 3 2.32 3 3 C3.66 3 4.32 3 5 3 C6.65625 5.08203125 6.65625 5.08203125 8.5 7.8125 C9.1084375 8.70582031 9.716875 9.59914062 10.34375 10.51953125 C11.56322622 12.34586946 12.7818509 14.17277634 14 16 C13.67 16.99 13.34 17.98 13 19 C9 14.25 9 14.25 9 12 C8.360625 11.690625 7.72125 11.38125 7.0625 11.0625 C5 10 5 10 4 9 C3.95936168 7.33382885 3.957279 5.66611905 4 4 C2.68 4 1.36 4 0 4 C0 2.68 0 1.36 0 0 Z " fill="#B9D7E7" transform="translate(644,188)"/>
<path d="M0 0 C0.66 0.33 1.32 0.66 2 1 C0.23205273 2.95404698 -1.33804868 4.20121946 -3.625 5.5625 C-6.11190375 6.77912906 -6.11190375 6.77912906 -7 9 C-7.66 9 -8.32 9 -9 9 C-9 9.66 -9 10.32 -9 11 C-9.928125 11.12375 -9.928125 11.12375 -10.875 11.25 C-13.17469437 11.78131326 -13.17469437 11.78131326 -13.9375 13.9375 C-15 16 -15 16 -17.625 17.25 C-18.40875 17.4975 -19.1925 17.745 -20 18 C-16.74114449 13.28529839 -14.12245538 9.75824521 -9 7 C-8.154375 6.154375 -7.30875 5.30875 -6.4375 4.4375 C-4.29204533 2.29204533 -2.84105283 0.97967339 0 0 Z " fill="#54A2AE" transform="translate(483,311)"/>
<path d="M0 0 C4.75 1.875 4.75 1.875 7 3 C3.25 6 3.25 6 1 6 C1 6.66 1 7.32 1 8 C-0.75 9.5078125 -0.75 9.5078125 -3 11.125 C-3.7425 11.66382813 -4.485 12.20265625 -5.25 12.7578125 C-5.8275 13.16773438 -6.405 13.57765625 -7 14 C-5.5 11 -5.5 11 -4 8 C-4.33 7.01 -4.66 6.02 -5 5 C-3.68 5 -2.36 5 -1 5 C-0.67 3.35 -0.34 1.7 0 0 Z " fill="#6BB6CF" transform="translate(500,341)"/>
<path d="M0 0 C0.33 0.99 0.66 1.98 1 3 C1.74765625 2.84402344 2.4953125 2.68804687 3.265625 2.52734375 C4.74289062 2.23537109 4.74289062 2.23537109 6.25 1.9375 C7.71179688 1.64166016 7.71179688 1.64166016 9.203125 1.33984375 C11.868119 1.01602465 13.48871723 1.14496801 16 2 C14.98046875 3.45703125 14.98046875 3.45703125 13 5 C10.37060795 5.37644848 7.94927528 5.60133087 5.3125 5.6875 C4.61060547 5.72166016 3.90871094 5.75582031 3.18554688 5.79101562 C1.45758613 5.87329947 -0.27118072 5.9383324 -2 6 C-1.125 1.125 -1.125 1.125 0 0 Z " fill="#88C2D3" transform="translate(522,289)"/>
<path d="M0 0 C1.98 0.99 1.98 0.99 4 2 C4 2.99 4 3.98 4 5 C4.66 5.33 5.32 5.66 6 6 C6 6.66 6 7.32 6 8 C9.63 8.33 13.26 8.66 17 9 C17 9.33 17 9.66 17 10 C13.04 10.66 9.08 11.32 5 12 C0 2.25 0 2.25 0 0 Z " fill="#0C5C4F" transform="translate(550,275)"/>
<path d="M0 0 C0.66 0.33 1.32 0.66 2 1 C2 4.63 2 8.26 2 12 C1.01 12.495 1.01 12.495 0 13 C0 12.34 0 11.68 0 11 C-0.99 10.67 -1.98 10.34 -3 10 C-4.75 7.125 -4.75 7.125 -6 4 C-5.67 3.01 -5.34 2.02 -5 1 C-3 3 -3 3 -2 5 C-1.34 5 -0.68 5 0 5 C0 3.35 0 1.7 0 0 Z " fill="#1586B4" transform="translate(585,341)"/>
<path d="M0 0 C0.99 0.33 1.98 0.66 3 1 C2.67 1.66 2.34 2.32 2 3 C0.68 2.67 -0.64 2.34 -2 2 C-1.34 1.34 -0.68 0.68 0 0 Z M-4 3 C-3.34 3 -2.68 3 -2 3 C-1.67 3.66 -1.34 4.32 -1 5 C-0.34 5.33 0.32 5.66 1 6 C-4 12.57142857 -4 12.57142857 -9 14 C-9.33 12.35 -9.66 10.7 -10 9 C-8.02 8.34 -6.04 7.68 -4 7 C-4 5.68 -4 4.36 -4 3 Z " fill="#3098C1" transform="translate(497,343)"/>
<path d="M0 0 C0.99 0.66 1.98 1.32 3 2 C-2.30129694 5.3735526 -7.53636333 8.58760333 -14 8 C-14 7.01 -14 6.02 -14 5 C-9.545 4.505 -9.545 4.505 -5 4 C-5 3.34 -5 2.68 -5 2 C-3.35 2 -1.7 2 0 2 C0 1.34 0 0.68 0 0 Z " fill="#5DA7B7" transform="translate(519,294)"/>
<path d="M0 0 C1.58227326 5.31598283 -0.31072319 8.71334996 -2.875 13.5 C-4.79948924 16.74847997 -6.87095626 19.88247167 -9 23 C-9 19.59343672 -8.19737232 17.93540773 -6.75 14.875 C-6.29753906 13.90691406 -5.84507812 12.93882812 -5.37890625 11.94140625 C-4.92386719 10.97074219 -4.46882813 10.00007813 -4 9 C-3.22443772 7.27294918 -2.45308958 5.54399472 -1.6875 3.8125 C-1.36136719 3.07644531 -1.03523438 2.34039062 -0.69921875 1.58203125 C-0.46847656 1.05996094 -0.23773438 0.53789062 0 0 Z " fill="#C1D5B3" transform="translate(487,256)"/>
<path d="M0 0 C0.33 0 0.66 0 1 0 C1 1.98 1 3.96 1 6 C0.34 6 -0.32 6 -1 6 C-0.814375 6.70125 -0.62875 7.4025 -0.4375 8.125 C0.05156976 11.33888698 -0.33768442 13.83560336 -1 17 C-1.66 17 -2.32 17 -3 17 C-4.60787839 13.78424322 -4.48211971 10.4875413 -4 7 C-2.89230862 4.42183623 -1.56739499 2.35109248 0 0 Z " fill="#227153" transform="translate(522,175)"/>
<path d="M0 0 C2.88989737 2.88989737 3.83134565 4.22434749 5 8 C5 9.65 5 11.3 5 13 C-2.92 13.495 -2.92 13.495 -11 14 C-11 13.67 -11 13.34 -11 13 C-6.15758367 11.66416101 -2.06562383 10.74671881 3 11 C2.01 7.37 1.02 3.74 0 0 Z " fill="#B0D8DC" transform="translate(549,276)"/>
<path d="M0 0 C2 1 2 1 2 1 Z M-1 2 C-3 5 -3 5 -5.3125 6.375 C-8.36113115 8.21835837 -10.5600205 10.4205931 -13 13 C-14 11 -14 11 -13.765625 9.046875 C-11.86787158 3.97328932 -6.2025455 1.21173553 -1 2 Z " fill="#65AECA" transform="translate(620,263)"/>
<path d="M0 0 C1.38718056 4.31875549 0.03889802 6.00062312 -2 10 C-2.2165625 11.794375 -2.2165625 11.794375 -2.4375 13.625 C-3.07531461 17.45188764 -4.03557802 18.60933711 -7 21 C-8.17189558 17.48431326 -7.83725505 17.0008148 -6.34765625 13.76953125 C-5.98349609 12.96708984 -5.61933594 12.16464844 -5.24414062 11.33789062 C-4.65922852 10.08782227 -4.65922852 10.08782227 -4.0625 8.8125 C-3.67642578 7.96751953 -3.29035156 7.12253906 -2.89257812 6.25195312 C-1.93699299 4.16382265 -0.97256217 2.08026396 0 0 Z " fill="#B9CCAA" transform="translate(476,280)"/>
<path d="M0 0 C1.10190203 4.4076081 1.06938317 7.62017848 0 12 C-1.4375 14 -1.4375 14 -3 15 C-3.66 15 -4.32 15 -5 15 C-5 15.99 -5 16.98 -5 18 C-5.66 17.67 -6.32 17.34 -7 17 C-4.69 11.39 -2.38 5.78 0 0 Z " fill="#C3DBB9" transform="translate(517,186)"/>
<path d="M0 0 C0.66 0 1.32 0 2 0 C3.01428514 2.03460769 4.01086789 4.07804606 5 6.125 C5.556875 7.26195312 6.11375 8.39890625 6.6875 9.5703125 C8.00504969 13.01319533 8.26577282 15.35669762 8 19 C4.91889497 16.45588756 4.05608715 13.82430906 2.875 10.0625 C2.54242187 9.02222656 2.20984375 7.98195313 1.8671875 6.91015625 C1.18316624 4.61467951 0.55028025 2.33026839 0 0 Z " fill="#2284A4" transform="translate(571,323)"/>
<path d="M0 0 C0.66 1.32 1.32 2.64 2 4 C0.66666667 4.33333333 -0.66666667 4.66666667 -2 5 C-2.5775 5.1753125 -3.155 5.350625 -3.75 5.53125 C-6.62130425 6.12943839 -9.31950741 6.09435318 -12.25 6.0625 C-13.32765625 6.05347656 -14.4053125 6.04445313 -15.515625 6.03515625 C-16.33546875 6.02355469 -17.1553125 6.01195312 -18 6 C-15.06552643 3.06552643 -11.81740544 3.53841577 -7.875 3.375 C-6.74384766 3.31699219 -6.74384766 3.31699219 -5.58984375 3.2578125 C-3.72696816 3.16348969 -1.86351745 3.08065338 0 3 C0 2.01 0 1.02 0 0 Z " fill="#64A8C2" transform="translate(554,286)"/>
<path d="M0 0 C0 0.66 0 1.32 0 2 C-0.81984375 2.26554687 -1.6396875 2.53109375 -2.484375 2.8046875 C-4.10085938 3.33449219 -4.10085938 3.33449219 -5.75 3.875 C-6.81734375 4.22304688 -7.8846875 4.57109375 -8.984375 4.9296875 C-11.45549261 5.8067422 -13.6973692 6.75926205 -16 8 C-15.34 6.68 -14.68 5.36 -14 4 C-13.34 4 -12.68 4 -12 4 C-12 3.34 -12 2.68 -12 2 C-10.7625 1.67 -9.525 1.34 -8.25 1 C-7.55390625 0.814375 -6.8578125 0.62875 -6.140625 0.4375 C-4 0 -4 0 0 0 Z " fill="#60A08C" transform="translate(505,300)"/>
<path d="M0 0 C3.0171926 2.55573961 4.2432533 5.38380793 5.75 9 C6.19859375 10.051875 6.6471875 11.10375 7.109375 12.1875 C8 15 8 15 7 18 C7 17.34 7 16.68 7 16 C6.34 16 5.68 16 5 16 C4.67 16.66 4.34 17.32 4 18 C3.87882813 17.25234375 3.75765625 16.5046875 3.6328125 15.734375 C3.46523438 14.74953125 3.29765625 13.7646875 3.125 12.75 C2.96257813 11.77546875 2.80015625 10.8009375 2.6328125 9.796875 C2.04790412 7.2117244 1.18941149 5.33884277 0 3 C0 2.01 0 1.02 0 0 Z " fill="#9DC6BB" transform="translate(559,188)"/>
<path d="M0 0 C0.12375 0.61875 0.2475 1.2375 0.375 1.875 C0.87197356 4.19120832 0.87197356 4.19120832 3 6 C2.21654285 7.17219543 1.42297164 8.33763668 0.625 9.5 C0.18414062 10.1496875 -0.25671875 10.799375 -0.7109375 11.46875 C-1.13632812 11.9740625 -1.56171875 12.479375 -2 13 C-2.66 13 -3.32 13 -4 13 C-3.50269348 8.02693484 -2.44697666 4.36200187 0 0 Z " fill="#82B08E" transform="translate(454,331)"/>
<path d="M0 0 C3.46122921 2.74187735 4.69610024 6.57591736 6.25 10.5625 C6.53101563 11.24763672 6.81203125 11.93277344 7.1015625 12.63867188 C7.80028927 14.40105449 8.40737311 16.19916548 9 18 C8.67 18.66 8.34 19.32 8 20 C0 6.57142857 0 6.57142857 0 0 Z " fill="#318AAC" transform="translate(619,330)"/>
<path d="M0 0 C1.25127906 3.54667178 0.72285053 5.72253438 -0.4375 9.25 C-0.72496094 10.14203125 -1.01242187 11.0340625 -1.30859375 11.953125 C-1.53675781 12.62859375 -1.76492188 13.3040625 -2 14 C-2.66 14 -3.32 14 -4 14 C-4.33 15.32 -4.66 16.64 -5 18 C-5.66 18 -6.32 18 -7 18 C-5.06375702 11.79522136 -2.74390859 5.89174281 0 0 Z " fill="#C9DABE" transform="translate(504,217)"/>
<path d="M0 0 C0.66 0.33 1.32 0.66 2 1 C1.3836103 5.00653305 -0.58572726 7.80463901 -3 11 C-3.99 11.33 -4.98 11.66 -6 12 C-5.38461538 5.47692308 -5.38461538 5.47692308 -3.4375 3.0625 C-2.7259375 2.5365625 -2.7259375 2.5365625 -2 2 C-1.67 2.66 -1.34 3.32 -1 4 C-0.67 2.68 -0.34 1.36 0 0 Z " fill="#5B8C5B" transform="translate(460,325)"/>
<path d="M0 0 C0.66 0.66 1.32 1.32 2 2 C1.89074068 5.16852034 0.77791951 6.24545738 -1.375 8.625 C-4 11 -4 11 -7 13 C-6.5818299 8.12134885 -4.45965662 6.28667379 -1 3 C-0.67 2.01 -0.34 1.02 0 0 Z " fill="#2B92B8" transform="translate(482,362)"/>
<path d="M0 0 C0 5.04169875 -3.78637167 8.32159072 -7 12 C-9.9375 14.5625 -9.9375 14.5625 -12 16 C-10.93483078 13.51460515 -9.99268507 11.99314225 -8 10.125 C-5.77343862 8.06500381 -5.77343862 8.06500381 -5 4.875 C-4 2 -4 2 -1.875 0.625 C-1.25625 0.41875 -0.6375 0.2125 0 0 Z " fill="#B4D7E4" transform="translate(654,268)"/>
<path d="M0 0 C0.33 1.32 0.66 2.64 1 4 C0.34 4 -0.32 4 -1 4 C-1.12117188 4.61488281 -1.24234375 5.22976562 -1.3671875 5.86328125 C-1.61855469 7.07564453 -1.61855469 7.07564453 -1.875 8.3125 C-2.03742188 9.11300781 -2.19984375 9.91351563 -2.3671875 10.73828125 C-3 13 -3 13 -5 16 C-5.66 16 -6.32 16 -7 16 C-7 14.68 -7 13.36 -7 12 C-6.34 12 -5.68 12 -5 12 C-4.80664062 11.30132812 -4.61328125 10.60265625 -4.4140625 9.8828125 C-4.15367187 8.97273437 -3.89328125 8.06265625 -3.625 7.125 C-3.36976563 6.22007812 -3.11453125 5.31515625 -2.8515625 4.3828125 C-2 2 -2 2 0 0 Z " fill="#99B386" transform="translate(495,243)"/>
<path d="M0 0 C0.66 0.99 1.32 1.98 2 3 C1.360625 3.763125 0.72125 4.52625 0.0625 5.3125 C-2.14232781 7.88246713 -2.14232781 7.88246713 -3 11 C-3.66 11 -4.32 11 -5 11 C-5.66 12.32 -6.32 13.64 -7 15 C-7.35048466 10.79418409 -6.61867025 9.22297877 -4 6 C-3.649375 5.113125 -3.29875 4.22625 -2.9375 3.3125 C-2 1 -2 1 0 0 Z " fill="#3399B7" transform="translate(453,343)"/>
<path d="M0 0 C0.33 0 0.66 0 1 0 C1.66 7.26 2.32 14.52 3 22 C2.34 21.67 1.68 21.34 1 21 C0.27129528 18.68529088 -0.39239518 16.3494053 -1 14 C-1.33 13.01 -1.66 12.02 -2 11 C-1.66015625 8.30078125 -1.66015625 8.30078125 -1.0625 5.3125 C-0.86785156 4.31863281 -0.67320312 3.32476562 -0.47265625 2.30078125 C-0.31667969 1.54152344 -0.16070313 0.78226563 0 0 Z " fill="#87BB7E" transform="translate(517,190)"/>
<path d="M0 0 C0.886875 0.45375 1.77375 0.9075 2.6875 1.375 C7.89603816 3.93013193 12.19841502 5.31746059 18 6 C18 6.33 18 6.66 18 7 C7.25459555 7.68831772 7.25459555 7.68831772 3.375 5.1875 C1 3 1 3 0 0 Z " fill="#7CB5CB" transform="translate(595,372)"/>
<path d="M0 0 C-2.45475514 1.03028044 -4.91314351 2.04945504 -7.375 3.0625 C-8.42300781 3.50432617 -8.42300781 3.50432617 -9.4921875 3.95507812 C-11.30504908 4.69591098 -13.15123143 5.35396964 -15 6 C-15.66 5.67 -16.32 5.34 -17 5 C-13.93911509 1.00754142 -10.92399009 0.20633349 -6.21875 -0.80078125 C-3.88195556 -1.01059906 -2.22376139 -0.70250644 0 0 Z " fill="#A3D3E1" transform="translate(535,331)"/>
<path d="M0 0 C0.33 0 0.66 0 1 0 C1.42820102 3.63970867 0.97413512 5.04569463 -0.875 8.3125 C-1.926875 9.6428125 -1.926875 9.6428125 -3 11 C-3.66 11 -4.32 11 -5 11 C-4.54824045 6.14358485 -3.34650039 3.55565666 0 0 Z " fill="#69AEC8" transform="translate(656,259)"/>
<path d="M0 0 C0.88935377 3.303314 1.46274105 6.62294375 2 10 C0.35 10.66 -1.3 11.32 -3 12 C-3.34833144 7.12335991 -2.41685712 4.22949995 0 0 Z " fill="#6CB7D5" transform="translate(644,225)"/>
<path d="M0 0 C2.7920147 1.39600735 3.00162933 3.00416384 4.125 5.875 C4.47820313 6.75929687 4.83140625 7.64359375 5.1953125 8.5546875 C6 11 6 11 6 14 C5.34 14 4.68 14 4 14 C3.67 12.02 3.34 10.04 3 8 C2.01 7.67 1.02 7.34 0 7 C0 4.69 0 2.38 0 0 Z " fill="#79AC7B" transform="translate(521,215)"/>
<path d="M0 0 C1.39195915 4.17587745 -0.17676781 6.13474776 -2 10 C-2.66 10 -3.32 10 -4 10 C-4.625 7.6875 -4.625 7.6875 -5 5 C-4.34 4.01 -3.68 3.02 -3 2 C-2.01 2 -1.02 2 0 2 C0 1.34 0 0.68 0 0 Z " fill="#ADC69C" transform="translate(536,256)"/>
<path d="M0 0 C0.66 0 1.32 0 2 0 C4.29013653 3.4352048 4.17842973 4.985331 4 9 C3.01 9.33 2.02 9.66 1 10 C0.67 6.7 0.34 3.4 0 0 Z " fill="#94CADD" transform="translate(657,207)"/>
<path d="M0 0 C0.66 0.33 1.32 0.66 2 1 C1.2884375 1.6496875 1.2884375 1.6496875 0.5625 2.3125 C-1.23686957 4.02309613 -1.23686957 4.02309613 -2 7 C-4.0625 8.6875 -4.0625 8.6875 -6 10 C-6.66 9.67 -7.32 9.34 -8 9 C-7.34 7.68 -6.68 6.36 -6 5 C-5.34 5 -4.68 5 -4 5 C-3.8453125 4.0409375 -3.8453125 4.0409375 -3.6875 3.0625 C-3.460625 2.381875 -3.23375 1.70125 -3 1 C-2.01 0.67 -1.02 0.34 0 0 Z " fill="#8CBFD3" transform="translate(638,284)"/>
<path d="M0 0 C1.875 0.625 1.875 0.625 4 2 C5.66783878 5.75263725 6.24045528 8.91226018 6 13 C4.43926745 10.65890118 3.13626133 8.43666597 1.875 5.9375 C1.34519531 4.89916016 1.34519531 4.89916016 0.8046875 3.83984375 C0 2 0 2 0 0 Z " fill="#1E614C" transform="translate(539,251)"/>
<path d="M0 0 C1.36682561 2.73365122 0.84683011 4.10666379 0 7 C-1.4375 8.625 -1.4375 8.625 -3 10 C-3.66 10.99 -4.32 11.98 -5 13 C-3.81570997 4.20241692 -3.81570997 4.20241692 -3 2 C-2.01 1.34 -1.02 0.68 0 0 Z " fill="#A4C18C" transform="translate(508,215)"/>
<path d="M0 0 C1.67588141 2.51382212 2.94030311 4.82947288 4.1875 7.5625 C4.55230469 8.34753906 4.91710937 9.13257813 5.29296875 9.94140625 C5.52628906 10.62074219 5.75960937 11.30007813 6 12 C5.67 12.66 5.34 13.32 5 14 C2.37200898 12.13497412 1.13634249 10.69589209 0.51171875 7.5078125 C0.27406427 5.0035728 0.0959336 2.51346021 0 0 Z " fill="#9CBFB4" transform="translate(586,249)"/>
<path d="M0 0 C0.99 0 1.98 0 3 0 C2.42365861 4.75481646 0.44931479 7.97048212 -2 12 C-2.33 11.01 -2.66 10.02 -3 9 C-2.67 8.67 -2.34 8.34 -2 8 C-1.835 6.845 -1.67 5.69 -1.5 4.5 C-1 1 -1 1 0 0 Z " fill="#A5D2E2" transform="translate(658,256)"/>
<path d="M0 0 C0.33 0.66 0.66 1.32 1 2 C-1.31 5.3 -3.62 8.6 -6 12 C-6 9.33333333 -6 6.66666667 -6 4 C-5.38125 3.896875 -4.7625 3.79375 -4.125 3.6875 C-1.63473516 3.12474627 -1.63473516 3.12474627 0 0 Z " fill="#8BC6DA" transform="translate(489,358)"/>
<path d="M0 0 C-0.33 0.66 -0.66 1.32 -1 2 C-7.42857143 3.28571429 -7.42857143 3.28571429 -10 2 C-10 2.66 -10 3.32 -10 4 C-10.66 4 -11.32 4 -12 4 C-12 3.01 -12 2.02 -12 1 C-10.56496445 0.63597631 -9.12683494 0.28413409 -7.6875 -0.0625 C-6.88699219 -0.25972656 -6.08648438 -0.45695312 -5.26171875 -0.66015625 C-3 -1 -3 -1 0 0 Z " fill="#1482B1" transform="translate(582,318)"/>
<path d="M0 0 C1.32 0.33 2.64 0.66 4 1 C3.01 1.495 3.01 1.495 2 2 C2 2.66 2 3.32 2 4 C0.3203125 5.32421875 0.3203125 5.32421875 -1.875 6.6875 C-2.59429688 7.14511719 -3.31359375 7.60273438 -4.0546875 8.07421875 C-5.01761719 8.53248047 -5.01761719 8.53248047 -6 9 C-6.66 8.67 -7.32 8.34 -8 8 C-6.68 7.34 -5.36 6.68 -4 6 C-4 5.01 -4 4.02 -4 3 C-2.35 3 -0.7 3 1 3 C0.67 2.01 0.34 1.02 0 0 Z " fill="#9CD4E1" transform="translate(626,293)"/>
<path d="M0 0 C-0.99 1.485 -0.99 1.485 -2 3 C-4.8203125 3.29296875 -4.8203125 3.29296875 -8.125 3.1875 C-9.76855469 3.14689453 -9.76855469 3.14689453 -11.4453125 3.10546875 C-12.28835938 3.07066406 -13.13140625 3.03585937 -14 3 C-14 2.67 -14 2.34 -14 2 C-4.58997722 -0.29612756 -4.58997722 -0.29612756 0 0 Z " fill="#4A9DB0" transform="translate(576,283)"/>
<path d="M0 0 C2.70705488 3.3384591 3.51178906 5.70374369 4 10 C4.99 10.33 5.98 10.66 7 11 C3 11 3 11 1 10 C0.5859375 7.71484375 0.5859375 7.71484375 0.375 4.9375 C0.30023437 4.01839844 0.22546875 3.09929687 0.1484375 2.15234375 C0.09945312 1.44207031 0.05046875 0.73179687 0 0 Z " fill="#98BBB5" transform="translate(592,264)"/>
<path d="M0 0 C3.53790403 3.69172595 3.59115883 7.09390595 4 12 C2 10.5 2 10.5 0 8 C-0.35800135 5.24128373 -0.18660165 2.79902476 0 0 Z " fill="#71A393" transform="translate(575,224)"/>
<path d="M0 0 C3.3 0 6.6 0 10 0 C9.67 0.66 9.34 1.32 9 2 C6.93359375 2.4140625 6.93359375 2.4140625 4.4375 2.625 C3.61121094 2.69976562 2.78492188 2.77453125 1.93359375 2.8515625 C0.97646484 2.92503906 0.97646484 2.92503906 0 3 C0 2.01 0 1.02 0 0 Z " fill="#3FA4C7" transform="translate(552,319)"/>
<path d="M0 0 C-3.28437688 3.28437688 -7.64711473 4.54903824 -12 6 C-12 5.34 -12 4.68 -12 4 C-10.390625 2.67578125 -10.390625 2.67578125 -8.25 1.3125 C-7.55390625 0.85488281 -6.8578125 0.39726562 -6.140625 -0.07421875 C-3.60909275 -1.16906025 -2.53899138 -0.9435441 0 0 Z " fill="#659B69" transform="translate(491,306)"/>
<path d="M0 0 C2.0625 0.4375 2.0625 0.4375 4 1 C0.11690718 4.64775386 -2.71201818 5.58525633 -8 6 C-5.76019711 2.64029566 -4.65777032 2.31304575 -1 1 C-0.67 0.67 -0.34 0.34 0 0 Z " fill="#54A5B8" transform="translate(493,305)"/>
<path d="M0 0 C2 1 2 1 2.625 2.625 C3.12095645 5.7660575 3.06103811 8.82601831 3 12 C0.71046511 9.71046511 0.47586642 8.54484795 -0.1875 5.4375 C-0.36667969 4.63183594 -0.54585937 3.82617188 -0.73046875 2.99609375 C-0.81941406 2.33738281 -0.90835938 1.67867187 -1 1 C-0.67 0.67 -0.34 0.34 0 0 Z " fill="#81BACD" transform="translate(660,216)"/>
<path d="M0 0 C2.00047023 2.54605302 3.82572785 4.9664636 5 8 C4.67 8.99 4.34 9.98 4 11 C3.67 10.34 3.34 9.68 3 9 C2.01 8.67 1.02 8.34 0 8 C0 5.36 0 2.72 0 0 Z " fill="#94C0B0" transform="translate(570,213)"/>
<path d="M0 0 C0.98247098 3.0565764 1.07716184 4.96436209 0 8 C-0.99 9.485 -0.99 9.485 -2 11 C-2.66 11 -3.32 11 -4 11 C-3.52269162 9.5410574 -3.04308958 8.08286504 -2.5625 6.625 C-2.29566406 5.81289062 -2.02882813 5.00078125 -1.75390625 4.1640625 C-1 2 -1 2 0 0 Z " fill="#C7DCB5" transform="translate(509,206)"/>
<path d="M0 0 C-1.75864246 2.1793144 -2.69396 2.93686419 -5.48046875 3.51171875 C-6.82044922 3.59873047 -6.82044922 3.59873047 -8.1875 3.6875 C-9.08855469 3.75324219 -9.98960937 3.81898438 -10.91796875 3.88671875 C-11.60503906 3.92410156 -12.29210937 3.96148437 -13 4 C-10.81006393 1.81006393 -9.4012702 1.27802011 -6.5 0.3125 C-5.7059375 0.04050781 -4.911875 -0.23148437 -4.09375 -0.51171875 C-2 -1 -2 -1 0 0 Z " fill="#4D9DAA" transform="translate(596,277)"/>
<path d="M0 0 C2.4294516 3.6441774 2.16179575 5.71241272 2 10 C1.01 10 0.02 10 -1 10 C-0.67 6.7 -0.34 3.4 0 0 Z " fill="#2196C2" transform="translate(444,361)"/>
<path d="M0 0 C1.98 0.99 1.98 0.99 4 2 C4 2.99 4 3.98 4 5 C4.66 5.33 5.32 5.66 6 6 C5.34 7.32 4.68 8.64 4 10 C3.32845067 8.71086513 2.66291141 7.41859796 2 6.125 C1.62875 5.40570313 1.2575 4.68640625 0.875 3.9453125 C0 2 0 2 0 0 Z " fill="#13543F" transform="translate(550,275)"/>
<path d="M0 0 C0.33 1.32 0.66 2.64 1 4 C-0.65 5.32 -2.3 6.64 -4 8 C-4.66 7.67 -5.32 7.34 -6 7 C-4.02 4.69 -2.04 2.38 0 0 Z " fill="#4EA0A3" transform="translate(469,321)"/>
<path d="M0 0 C0.99 0.33 1.98 0.66 3 1 C2.37240135 3.92879371 1.41377341 6.36095629 0 9 C-0.66 8.67 -1.32 8.34 -2 8 C-2 7.01 -2 6.02 -2 5 C-1.34 5 -0.68 5 0 5 C0 3.35 0 1.7 0 0 Z " fill="#6E9656" transform="translate(467,305)"/>
<path d="M0 0 C0.33 0 0.66 0 1 0 C1 1.98 1 3.96 1 6 C0.01 6 -0.98 6 -2 6 C-2.33 7.65 -2.66 9.3 -3 11 C-3.75 9.4375 -3.75 9.4375 -4 7 C-2.86915563 4.49713591 -1.47860484 2.32992278 0 0 Z " fill="#8ABFAF" transform="translate(522,175)"/>
<path d="M0 0 C0.33 0.66 0.66 1.32 1 2 C-1.83430453 5.2542015 -3.68607774 6.5206753 -8 7 C-7.9375 5.1875 -7.9375 5.1875 -7 3 C-3.4375 1.25 -3.4375 1.25 0 0 Z " fill="#46977C" transform="translate(531,168)"/>
<path d="M0 0 C0.99 0.99 1.98 1.98 3 3 C0.25 7.875 0.25 7.875 -2 9 C-1.34 6.03 -0.68 3.06 0 0 Z M-4 9 C-3.01 9.495 -3.01 9.495 -2 10 C-2.99 10.495 -2.99 10.495 -4 11 C-4 10.34 -4 9.68 -4 9 Z " fill="#769C60" transform="translate(473,291)"/>
<path d="M0 0 C0.66 0.66 1.32 1.32 2 2 C1.071875 3.1446875 1.071875 3.1446875 0.125 4.3125 C-2.05597052 6.99625809 -2.05597052 6.99625809 -4 10 C-4.33 9.34 -4.66 8.68 -5 8 C-4.00390625 6.0546875 -4.00390625 6.0546875 -2.5625 3.875 C-2.08941406 3.15054687 -1.61632812 2.42609375 -1.12890625 1.6796875 C-0.75636719 1.12539063 -0.38382812 0.57109375 0 0 Z " fill="#809F6A" transform="translate(478,282)"/>
<path d="M0 0 C-3.32307692 3.93846154 -3.32307692 3.93846154 -6.75 4.25 C-7.4925 4.1675 -8.235 4.085 -9 4 C-6.77642026 0.66463039 -4.04815944 -2.02407972 0 0 Z " fill="#8AC1D4" transform="translate(623,261)"/>
<path d="M0 0 C0.99 0 1.98 0 3 0 C1.90931332 3.77545388 1.0916909 6.47043472 -2 9 C-1.125 1.125 -1.125 1.125 0 0 Z " fill="#157751" transform="translate(524,174)"/>
<path d="M0 0 C0.33 0.66 0.66 1.32 1 2 C0.67 2.66 0.34 3.32 0 4 C-0.66 4 -1.32 4 -2 4 C-2 4.66 -2 5.32 -2 6 C-3.32 6.33 -4.64 6.66 -6 7 C-4.52307692 2.32307692 -4.52307692 2.32307692 -1.875 0.6875 C-1.25625 0.460625 -0.6375 0.23375 0 0 Z " fill="#88C2DA" transform="translate(481,370)"/>
<path d="M0 0 C1.9375 0.625 1.9375 0.625 4 2 C5.40540541 7.18918919 5.40540541 7.18918919 4 10 C0 3.375 0 3.375 0 0 Z " fill="#7BC6D8" transform="translate(579,342)"/>
<path d="M0 0 C0.66 0.33 1.32 0.66 2 1 C1.1875 2.9375 1.1875 2.9375 0 5 C-0.99 5.33 -1.98 5.66 -3 6 C-3 4.68 -3 3.36 -3 2 C-2.01 1.34 -1.02 0.68 0 0 Z " fill="#419BBD" transform="translate(507,338)"/>
<path d="M0 0 C3.3 0 6.6 0 10 0 C6.39338934 1.80330533 3.91606575 2.46599103 0 3 C0 2.01 0 1.02 0 0 Z " fill="#92CDDB" transform="translate(546,324)"/>
<path d="M0 0 C0.99 0.33 1.98 0.66 3 1 C1.02 3.31 -0.96 5.62 -3 8 C-3.33 7.01 -3.66 6.02 -4 5 C-2.0625 2.3125 -2.0625 2.3125 0 0 Z " fill="#52936A" transform="translate(466,321)"/>
<path d="M0 0 C0.66 0.33 1.32 0.66 2 1 C2.25 3.3125 2.25 3.3125 2 6 C0 7.8125 0 7.8125 -2 9 C-2 7.68 -2 6.36 -2 5 C-1.34 5 -0.68 5 0 5 C0 3.35 0 1.7 0 0 Z " fill="#64AAC8" transform="translate(647,270)"/>
<path d="M0 0 C0 0.66 0 1.32 0 2 C-3.50776784 3.60355101 -6.14354879 4.22036864 -10 4 C-6.74659338 1.32755885 -4.23938937 0 0 0 Z " fill="#0C625B" transform="translate(585,278)"/>
<path d="M0 0 C0.33 0.66 0.66 1.32 1 2 C0.67 2.99 0.34 3.98 0 5 C0.66 5 1.32 5 2 5 C2 5.99 2 6.98 2 8 C1.01 7.67 0.02 7.34 -1 7 C-1.33 5.02 -1.66 3.04 -2 1 C-1.34 0.67 -0.68 0.34 0 0 Z " fill="#185A46" transform="translate(549,266)"/>
<path d="M0 0 C2 0 2 0 3.625 1.125 C5.55651159 3.75887944 5.21205536 5.81916956 5 9 C1.9083091 6.47043472 1.09068668 3.77545388 0 0 Z " fill="#7FBED2" transform="translate(574,333)"/>
<path d="M0 0 C0.99 0.66 1.98 1.32 3 2 C1 4 1 4 -2.125 4.125 C-3.548125 4.063125 -3.548125 4.063125 -5 4 C-5 3.34 -5 2.68 -5 2 C-3.35 2 -1.7 2 0 2 C0 1.34 0 0.68 0 0 Z " fill="#65A8AE" transform="translate(519,294)"/>
<path d="M0 0 C0.33 0.99 0.66 1.98 1 3 C3.31 3 5.62 3 8 3 C8 3.33 8 3.66 8 4 C3.545 4.495 3.545 4.495 -1 5 C-0.67 3.35 -0.34 1.7 0 0 Z " fill="#D4E6E6" transform="translate(522,289)"/>
<path d="M0 0 C0.33 1.32 0.66 2.64 1 4 C1.66 4 2.32 4 3 4 C3.33 4.99 3.66 5.98 4 7 C3.01 7.33 2.02 7.66 1 8 C0.26919734 6.02253397 -0.39421747 4.01927511 -1 2 C-0.67 1.34 -0.34 0.68 0 0 Z " fill="#7BA56C" transform="translate(534,246)"/>
</svg>
